# AST/ASF file generated using VICON BodyLanguage
# -----------------------------------------------
:version 1.10
:name VICON
:units
  mass 1.0
  length 0.45
  angle deg
:documentation
   .ast/.asf automatically generated from VICON data using
   VICON BodyBuilder and BodyLanguage model FoxedUp or BRILLIANT.MOD
:root
   order TX TY TZ RX RY RZ
   axis XYZ
   position 0 0 0  
   orientation 0 0 0 
:bonedata
  begin
     id 1 
     name lhipjoint
     direction 0.671379 -0.66392 0.329334 
     length 2.38647 
     axis 0 0 0  XYZ
  end
  begin
     id 2 
     name lfemur
     direction 0.34202 -0.939693 0  
     length 6.48179  
     axis 0 0 20  XYZ
    dof rx ry rz
    limits (-160.0 20.0)
           (-70.0 70.0)
           (-60.0 70.0)
  end
  begin
     id 3 
     name ltibia
     direction 0.34202 -0.939693 0   
     length 6.86524   
     axis 0 0 20   XYZ
    dof rx
    limits (-10.0 170.0)
  end
  begin
     id 4 
     name lfoot
     direction 0.204886 -0.562919 0.800715   
     length 1.73031   
     axis -90 7.62852e-016 20   XYZ
    dof rx rz
    limits (-45.0 90.0)
           (-70.0 20.0)
  end
  begin
     id 5 
     name ltoes
     direction 1.53548e-011 -4.21841e-011 1   
     length 0.828161   
     axis -90 7.62852e-016 20   XYZ
    dof rx
    limits (-90.0 20.0)
  end
  begin
     id 6 
     name rhipjoint
     direction -0.662732 -0.670855 0.332775   
     length 2.3618  
     axis 0 0 0  XYZ 
  end
  begin
     id 7 
     name rfemur
     direction -0.34202 -0.939693 0   
     length 6.3025   
     axis 0 0 -20   XYZ
    dof rx ry rz
    limits (-160.0 20.0)
           (-70.0 70.0)
           (-70.0 60.0)
  end
  begin
     id 8 
     name rtibia
     direction -0.34202 -0.939693 0   
     length 6.8732   
     axis 0 0 -20   XYZ
    dof rx
    limits (-10.0 170.0)
 end
 begin
     id 9 
     name rfoot
     direction -0.173856 -0.477665 0.861168   
     length 1.54784  
     axis -90 -7.62852e-016 -20   XYZ
    dof rx rz
    limits (-45.0 90.0)
           (-20.0 70.0)
  end
  begin
     id 10 
     name rtoes
     direction -1.53562e-011 -4.21802e-011 1   
     length 0.759618   
     axis -90 -7.62852e-016 -20   XYZ
    dof rx
    limits (-90.0 20.0)
  end
  begin
     id 11 
     name lowerback
     direction -0.0278357 0.999497 -0.0151789   
     length 1.97203   
     axis 0 0 0   XYZ
    dof rx ry rz
    limits (-20.0 45.0)
           (-30.0 30.0)
           (-30.0 30.0)
  end
  begin
     id 12 
     name upperback
     direction -0.00360622 0.997542 0.0699804   
     length 1.94709   
     axis 0 0 0   XYZ
    dof rx ry rz
    limits (-20.0 45.0)
           (-30.0 30.0)
           (-30.0 30.0)
  end
  begin
     id 13 
     name thorax
     direction 0.00907706 0.997048 0.0762461   
     length 1.95722   
     axis 0 0 0   XYZ
    dof rx ry rz
    limits (-20.0 45.0)
           (-30.0 30.0)
           (-30.0 30.0)
  end
  begin
     id 14 
     name lowerneck
     direction -0.0481835 0.99872 -0.0153927   
     length 1.63078   
     axis 0 0 0   XYZ
    dof rx ry rz
    limits (-20.0 45.0)
           (-30.0 30.0)
           (-30.0 30.0)
  end
  begin
     id 15 
     name upperneck
     direction 0.0859716 0.979226 -0.183644   
     length 1.62591   
     axis 0 0 0   XYZ
    dof rx ry rz
    limits (-20.0 45.0)
           (-30.0 30.0)
           (-30.0 30.0)
  end
  begin
     id 16
     name head
     direction 0.0324821 0.997629 -0.0606773  
     length 1.64811  
     axis 0 0 0   XYZ
    dof rx ry rz
    limits (-20.0 45.0)
           (-30.0 30.0)
           (-30.0 30.0)
  end
  begin
     id 17 
     name lclavicle
     direction 0.939609 0.311019 0.142835  
     length 3.70647  
     axis 0 0 0   XYZ
    dof ry rz
    limits (-20.0 10.0)
           (0.0 20.0)
  end
  begin
     id 18 
     name lhumerus
     direction 1 -4.48963e-011 -1.59838e-027   
     length 4.59207   
     axis 180 -30 -90   XYZ
    dof rx ry rz
    limits (-60.0 90.0)
           (-90.0 90.0)
           (-90.0 90.0)
  end
  begin
     id 19
     name lradius
     direction 1 -4.48957e-011 -1.3483e-026   
     length 2.98109   
     axis 180 -30 -90   XYZ
    dof rx
    limits (-10.0 170.0)
  end
  begin
     id 20
     name lwrist
     direction 1 -4.48954e-011 -3.11579e-026   
     length 1.49055   
     axis 2.00652e-014 90 90   XYZ
    dof ry
    limits (-180.0 0.0)
 end
  begin
     id 21 
     name lhand
     direction 1 -4.4911e-011 -6.23158e-026   
     length 0.480203   
     axis 3.97628e-014 90 90   XYZ
    dof rx rz
    limits (-90.0 90.0)
           (-45.0 45.0)
  end
  begin
     id 22 
     name lfingers
     direction 1 -4.48893e-011 -1.24632e-025   
     length 0.387152   
     axis 7.95256e-014 90 90   XYZ
    dof rx
    limits (0.0 90.0)
  end
  begin
     id 23
     name lthumb
     direction 0.707107 -6.35013e-011 0.707107   
     length 0.555875   
     axis -90 45 2.85299e-015   XYZ
    dof rx rz
    limits (-45.0 45.0)
           (-45.0 45.0)
  end
  begin
     id 24 
     name rclavicle
     direction -0.950396 0.30392 0.0661859   
     length 3.70894  
     axis 0 0 0   XYZ 
    dof ry rz
    limits (-10.0 20.0)
           (-20.0 0.0)
  end
  begin
     id 25 
     name rhumerus
     direction -1 -4.48957e-011 -2.96677e-027  
     length 4.76508   
     axis 180 30 90   XYZ
    dof rx ry rz
    limits (-90.0 60.0)
           (-90.0 90.0)
           (-90.0 90.0)
  end
  begin
     id 26 
     name rradius
     direction -1 -4.48974e-011 -1.44501e-026   
     length 2.78902   
     axis 180 30 90   XYZ
    dof rx
    limits (-10.0 170.0)
  end
  begin
     id 27 
     name rwrist
     direction -1 -4.48978e-011 -3.11579e-026   
     length 1.39451   
     axis 2.00652e-014 -90 -90   XYZ
    dof ry
    limits (-180.0 0.0)
  end
  begin
     id 28
     name rhand
     direction -1 -4.48956e-011 -6.23158e-026   
     length 0.721303   
     axis 3.97628e-014 -90 -90   XYZ
    dof rx rz
    limits (-90.0 90.0)
           (-45.0 45.0)
  end
  begin
     id 29
     name rfingers
     direction -1 -4.4899e-011 -1.24632e-025   
     length 0.581533   
     axis 7.95256e-014 -90 -90   XYZ
    dof rx
    limits (0.0 90.0)
  end
  begin
     id 30
     name rthumb
     direction -0.707107 -6.34911e-011 0.707107   
     length 0.834968   
     axis -90 -45 -2.85299e-015   XYZ
    dof rx rz
    limits (-45.0 45.0)
           (-45.0 45.0)
  end
:hierarchy
  begin
    root lhipjoint rhipjoint lowerback
    lhipjoint lfemur
    lfemur ltibia
    ltibia lfoot
    lfoot ltoes
    rhipjoint rfemur
    rfemur rtibia
    rtibia rfoot
    rfoot rtoes
    lowerback upperback
    upperback thorax
    thorax lowerneck lclavicle rclavicle
    lowerneck upperneck
    upperneck head
    lclavicle lhumerus
    lhumerus lradius
    lradius lwrist
    lwrist lhand lthumb
    lhand lfingers
    rclavicle rhumerus
    rhumerus rradius
    rradius rwrist
    rwrist rhand rthumb
    rhand rfingers
  end

#!OML:ASF I:\salsa\salsa 7_09\Patient 1\Session 1\dancerfemale.ASF
:FULLY-SPECIFIED
:DEGREES
951
root -5.57135 15.9149 -1.7753 -1084.3 148.471 1068.66
lowerback 3.96009 3.91005 -6.39624
upperback -6.0292 4.85234 -4.6799
thorax -8.7255 2.79271 -1.9933
lowerneck 13.1709 -13.3142 -16.4549
upperneck 2.04806 -19.6576 16.7376
head 1.81977 -10.1994 7.59945
rclavicle -9.78021e-014 2.22639e-014
rhumerus 36.8244 -7.29905 -56.8797
rradius 88.912
rwrist -32.5818
rhand -15.6932 57.2161
rfingers 7.12502
rthumb 10.4961 27.4982
lclavicle -9.78021e-014 2.22639e-014
lhumerus -36.3625 -24.2452 114.633
lradius 115.607
lwrist -13.5755
lhand -25.9967 39.0624
lfingers 7.12502
lthumb 0.548922 69.0414
rfemur -32.0665 -23.3781 4.61199
rtibia 44.7437
rfoot -9.12276 -20.7585
rtoes -16.199
lfemur -9.05903 -11.9647 -31.5036
ltibia 30.725
lfoot -20.7057 -23.8339
ltoes 18.737
952
root -5.38448 15.9019 -1.79845 -1084.27 148.331 1068.39
lowerback 3.28627 3.98045 -6.98979
upperback -6.09511 4.99297 -4.87498
thorax -8.44467 2.90912 -1.83964
lowerneck 13.2052 -13.439 -16.1424
upperneck 2.42909 -19.7921 16.5705
head 1.9019 -10.2504 7.48734
rclavicle 6.13251e-014 -3.26007e-014
rhumerus 36.0998 -8.07133 -57.0073
rradius 89.1267
rwrist -32.2202
rhand -16.606 57.821
rfingers 7.12502
rthumb 9.61551 28.0604
lclavicle 6.13251e-014 -3.26007e-014
lhumerus -36.4419 -24.7567 114.808
lradius 115.582
lwrist -13.0532
lhand -26.0902 39.1427
lfingers 7.12502
lthumb 0.458605 69.1219
rfemur -33.4843 -24.8724 4.74511
rtibia 47.2322
rfoot -8.24023 -18.4003
rtoes -18.9305
lfemur -8.82201 -12.1421 -31.3296
ltibia 30.964
lfoot -21.2401 -23.0768
ltoes 18.3862
953
root -5.19558 15.8846 -1.82072 -1084.31 148.006 1067.7
lowerback 2.52068 3.85581 -7.85569
upperback -6.28201 4.8833 -5.12168
thorax -8.25816 2.92895 -1.56828
lowerneck 13.0782 -13.3313 -15.9975
upperneck 2.92317 -19.6341 16.4645
head 2.01552 -10.1516 7.42286
rclavicle 3.11098e-014 7.71285e-014
rhumerus 35.3668 -8.42785 -57.3144
rradius 89.4291
rwrist -32.431
rhand -17.5746 58.3571
rfingers 7.12502
rthumb 8.6809 28.5556
lclavicle 3.11098e-014 7.71285e-014
lhumerus -36.3447 -24.9648 114.692
lradius 115.367
lwrist -12.652
lhand -26.3006 39.1587
lfingers 7.12502
lthumb 0.25546 69.1383
rfemur -35.3453 -26.5846 4.69251
rtibia 49.8037
rfoot -7.22724 -15.7064
rtoes -22.4276
lfemur -8.66322 -12.1831 -31.5164
ltibia 31.0751
lfoot -21.8369 -22.0811
ltoes 17.5799
954
root -5.00508 15.8296 -1.84264 -1084.55 147.421 1066.81
lowerback 1.74653 3.62628 -8.85062
upperback -6.46145 4.64406 -5.31916
thorax -8.06778 2.89377 -1.16452
lowerneck 12.9481 -13.0176 -16.0785
upperneck 3.2771 -19.2327 16.435
head 2.07715 -9.94155 7.43605
rclavicle -8.72665e-014 -4.21423e-014
rhumerus 34.8921 -8.56233 -57.6825
rradius 89.3714
rwrist -32.4824
rhand -18.4551 59.3065
rfingers 7.12502
rthumb 7.83108 29.4716
lclavicle -8.72665e-014 -4.21423e-014
lhumerus -35.8948 -24.9294 114.264
lradius 115.108
lwrist -12.2493
lhand -26.0838 38.7068
lfingers 7.12502
lthumb 0.4648 68.686
rfemur -37.4969 -28.5632 4.77681
rtibia 52.4305
rfoot -6.50909 -13.1505
rtoes -26.8093
lfemur -8.38482 -12.003 -31.9102
ltibia 31.1553
lfoot -22.5675 -20.8551
ltoes 16.8534
955
root -4.80978 15.8023 -1.86514 -1084.9 146.485 1066.41
lowerback 1.39499 3.45299 -9.40126
upperback -6.57864 4.4353 -5.26392
thorax -8.03471 2.83624 -0.769751
lowerneck 12.6789 -12.5856 -16.3585
upperneck 3.53226 -18.6894 16.4322
head 2.12818 -9.6651 7.48739
rclavicle 8.51792e-014 -3.65764e-014
rhumerus 34.6029 -8.618 -57.7098
rradius 88.9243
rwrist -32.1611
rhand -18.994 60.463
rfingers 7.12502
rthumb 7.31092 30.6093
lclavicle 8.51792e-014 -3.65764e-014
lhumerus -35.3955 -24.7857 113.773
lradius 115.407
lwrist -10.9961
lhand -24.9998 38.8022
lfingers 7.12502
lthumb 1.51171 68.7766
rfemur -39.1384 -30.38 5.491
rtibia 54.7351
rfoot -6.31351 -11.0354
rtoes -30.594
lfemur -7.59146 -11.4768 -31.8347
ltibia 31.1079
lfoot -23.4545 -19.7356
ltoes 16.0517
956
root -4.61626 15.7734 -1.88359 -1085.34 145.301 1065.68
lowerback 0.977926 3.19274 -10.1108
upperback -6.68441 4.11652 -5.17893
thorax -7.95561 2.73448 -0.243195
lowerneck 12.0807 -12.0302 -16.6499
upperneck 3.64758 -17.9442 16.359
head 2.14782 -9.28322 7.51342
rclavicle -1.16388e-013 4.77083e-014
rhumerus 34.6423 -8.35172 -57.513
rradius 88.2556
rwrist -31.608
rhand -19.0709 61.2201
rfingers 7.12502
rthumb 7.23675 31.3639
lclavicle -1.16388e-013 4.77083e-014
lhumerus -35.3207 -24.7224 113.586
lradius 115.744
lwrist -10.8968
lhand -25.3744 39.2268
lfingers 7.12502
lthumb 1.14994 69.2034
rfemur -41.1295 -32.2407 6.34993
rtibia 56.7712
rfoot -6.61604 -9.80305
rtoes -30.8241
lfemur -6.96354 -10.6056 -31.9011
ltibia 31.0556
lfoot -24.2643 -19.0448
ltoes 14.951
